<?xml version="1.0" standalone="no"?>
<!DOCTYPE svg PUBLIC "-//W3C//DTD SVG 20010904//EN"
 "http://www.w3.org/TR/2001/REC-SVG-20010904/DTD/svg10.dtd">
<svg version="1.0" xmlns="http://www.w3.org/2000/svg"
 width="1280.000000pt" height="1217.000000pt" viewBox="0 0 1280.000000 1217.000000"
 preserveAspectRatio="xMidYMid meet">
<metadata>
Created by potrace 1.15, written by Peter Selinger 2001-2017
</metadata>
<g transform="translate(0.000000,1217.000000) scale(0.100000,-0.100000)"
fill="#000000" stroke="none">
<path d="M5600 9909 c-437 -1237 -797 -2253 -800 -2258 -3 -4 -396 -17 -875
-30 -2722 -69 -3908 -101 -3913 -106 -3 -2 348 -271 2893 -2218 495 -379 901
-692 903 -696 1 -3 -158 -546 -353 -1206 -196 -660 -376 -1267 -401 -1350 -24
-82 -169 -573 -323 -1090 -153 -517 -277 -942 -275 -944 3 -4 -1 -7 1604 1099
657 453 1453 1001 1768 1217 l573 395 27 -18 c25 -16 908 -622 3045 -2091 482
-332 879 -603 881 -603 3 0 -25 95 -212 725 -45 149 -157 527 -250 840 -94
314 -256 860 -362 1215 -106 355 -270 908 -366 1230 -95 321 -170 587 -166
591 11 10 3333 2555 3574 2739 119 91 217 168 218 171 0 3 -138 9 -307 13
-170 3 -474 11 -678 16 -682 19 -3156 80 -3473 87 -201 4 -317 10 -326 17 -7
6 -59 139 -114 296 -122 344 -427 1207 -662 1870 -319 901 -561 1583 -692
1955 -72 204 -134 373 -137 377 -4 5 -364 -1005 -801 -2243z m820 1036 c6
-335 15 -812 20 -1060 5 -247 14 -684 20 -970 6 -286 15 -731 20 -990 5 -258
14 -711 20 -1005 6 -294 15 -713 20 -930 4 -217 6 -397 4 -400 -3 -2 -8 0 -12
6 -4 6 -374 431 -822 944 -580 663 -815 939 -813 954 1 11 343 986 760 2165
l758 2144 7 -124 c3 -68 11 -398 18 -734z m2395 -3415 c209 -6 832 -21 1385
-35 1747 -43 2214 -56 2218 -60 9 -9 -66 -34 -495 -170 -252 -79 -980 -308
-1618 -508 -638 -201 -1743 -548 -2455 -772 -712 -224 -1302 -410 -1310 -413
-8 -3 -1 12 16 33 17 22 332 469 700 994 l669 954 255 -7 c140 -4 426 -11 635
-16z m-5327 -1034 c1663 -509 3026 -926 3030 -926 21 -1 -130 -55 -1286 -456
-744 -257 -1266 -433 -1270 -428 -4 6 -257 201 -562 434 -305 233 -726 555
-935 715 -209 160 -756 579 -1215 930 -459 351 -842 644 -850 653 -13 13 -10
14 25 9 22 -3 1400 -422 3063 -931z m4179 -1367 c620 -237 1139 -436 1152
-442 20 -10 32 -37 72 -172 26 -88 133 -450 239 -805 106 -355 268 -899 360
-1210 92 -311 236 -794 320 -1075 83 -280 187 -631 231 -778 44 -148 78 -271
76 -273 -7 -7 54 -95 -1787 2576 -942 1367 -1733 2513 -1757 2548 -25 34 -43
62 -40 62 3 0 513 -194 1134 -431z m-1157 216 c-12 -259 -24 -524 -70 -1549
-21 -483 -40 -879 -42 -881 -2 -1 -316 -217 -698 -480 -382 -263 -1035 -712
-1450 -998 -1227 -846 -1514 -1043 -1530 -1052 -8 -5 -1 9 15 31 17 23 874
1184 1904 2582 1031 1398 1876 2540 1877 2539 1 -1 -2 -87 -6 -192z"/>
</g>
</svg>
